<svg xmlns="http://www.w3.org/2000/svg" fill="none" height="16" viewBox="0 0 16 16" width="16"><path clip-rule="evenodd" d="M6.834,0a.349,.349,0,00-.345,.303l-.109,.792v.004 .004l-.143,1.042c-.008,.061-.001,.121 .02,.174a5.996,5.996,0,00-1.01,.409c-.022-.063-.061-.12-.119-.164l-.835-.637 -.001-.001 -.001-.001 -.634-.483a.347,.347,0,00-.457,.032l-.562,.565 -.002,.002 -.568,.572 -.563,.567a.352,.352,0,00-.031,.46l.481,.639 .633,.842c.033,.043 .073,.077 .117,.1a5.901,5.901,0,00-.433,1.026c-.045-.013-.094-.017-.144-.01L1.09,6.38 .302,6.49a.35,.35,0,00-.301,.347v2.413a.35,.35,0,00,.301,.347l.788,.109 1.04,.144c.055,.008 .108,.002 .157-.014a5.905,5.905,0,00,.435,1.015c-.017,.015-.034,.033-.048,.052l-.633,.842 -.481,.639a.352,.352,0,00,.031,.46l.563,.567 .568,.572 .002,.002 .562,.565a.347,.347,0,00,.457,.031l.634-.483 .001-.001 .002-.001 .835-.637c.041-.031 .073-.07 .096-.113a6.006,6.006,0,00,.935,.373c-.011,.043-.014,.088-.007,.134l.143,1.042v.004 .003l.109,.792A.349,.349,0,00,6.834,16h2.397a.349,.349,0,00,.345-.303l.109-.792v-.004 -.004l.143-1.042c.007-.051 .003-.101-.011-.147a5.994,5.994,0,00,.929-.378c.023,.05 .058,.095 .105,.13l.835,.637 .001,.001h.001l.634,.484a.347,.347,0,00,.457-.031l.562-.565 .002-.002 .568-.572 .563-.567a.353,.353,0,00,.031-.46l-.481-.639 -.634-.842c-.023-.03-.049-.056-.079-.076a5.902,5.902,0,00,.414-.965c.045,.013 .094,.017 .144,.01l1.04-.144 .788-.109a.35,.35,0,00,.301-.347V6.858a.35,.35,0,00-.301-.347l-.788-.109 -1.04-.144c-.04-.006-.08-.004-.118,.004a5.895,5.895,0,00-.42-1.009c.056-.023 .107-.061 .146-.113l.634-.842 .481-.64a.352,.352,0,00-.031-.46l-.563-.567 -.568-.572 -.002-.002 -.562-.565a.347,.347,0,00-.457-.032l-.634,.484h-.001 -.001l-.835,.637c-.058,.045-.099,.104-.12,.168a5.998,5.998,0,00-1.016-.42c.024-.056 .034-.12 .025-.186L9.685,1.1v-.004 -.004L9.576,.3a.349,.349,0,00-.345-.303H6.834ZM4.516,8.547h1.406v-.591H4.516v-.918h1.582v-.593H3.784V10h.732V8.547ZM8.22,8.75a.373,.373,0,01,.146,.317a.349,.349,0,01-.146,.298a.69,.69,0,01-.408,.105c-.469,0-.703-.196-.703-.588h-.735c0,.229 .059,.431 .176,.605a1.199,1.199,0,00,.515,.413a1.828,1.828,0,00,.747,.149c.394,0 .707-.087 .94-.261a.859,.859,0,00,.349-.725a.929,.929,0,00-.286-.693a2.22,2.22,0,00-.911-.466a1.996,1.996,0,01-.515-.22a.343,.343,0,01-.173-.291a.355,.355,0,01,.149-.298a.67,.67,0,01,.417-.115a.629,.629,0,01,.432,.137a.476,.476,0,01,.154,.378h.732c0-.213-.055-.404-.166-.571a1.065,1.065,0,00-.461-.388a1.586,1.586,0,00-.679-.139c-.252,0-.48,.042-.684,.127a1.064,1.064,0,00-.466,.354a.857,.857,0,00-.161,.513a.985,.985,0,00,.605,.881a3.801,3.801,0,00,.603,.244a1.873,1.873,0,01,.527,.234Zm1.379-2.305V10H10.7a1.673,1.673,0,00,.837-.215a1.452,1.452,0,00,.574-.598a1.849,1.849,0,00,.205-.881v-.164c0-.33-.069-.625-.207-.884a1.461,1.461,0,00-.579-.601a1.647,1.647,0,00-.837-.212H9.599Zm.732,2.966V7.039h.361a.791,.791,0,01,.657,.281a1.284,1.284,0,01,.225,.82v.188a1.268,1.268,0,01-.232,.803a.795,.795,0,01-.657,.281h-.354Z" fill="#a6a6a6" fill-rule="evenodd"/></svg>